HIERARCHY
ROOT Hips
{
	OFFSET 0.000000 0.000000 0.000000
	CHANNELS 6 Xposition Yposition Zposition Zrotation Yrotation Xrotation 
	JOINT LHipJoint
	{
		OFFSET 0.000000 0.000000 0.000000
		CHANNELS 3 Zrotation Yrotation Xrotation
		JOINT LeftUpLeg
		{
			OFFSET 1.363060 -1.794630 0.839290
			CHANNELS 3 Zrotation Yrotation Xrotation
			JOINT LeftLeg
			{
				OFFSET 2.448110 -6.726130 0.000000
				CHANNELS 3 Zrotation Yrotation Xrotation
				JOINT LeftFoot
				{
					OFFSET 2.562200 -7.039590 0.000000
					CHANNELS 3 Zrotation Yrotation Xrotation
					JOINT LeftToeBase
					{
						OFFSET 0.157640 -0.433110 2.322550
						CHANNELS 3 Zrotation Yrotation Xrotation
						End Site
						{
							OFFSET 0.000000 0.000000 0.000000
						}
					}
				}
			}
		}
	}
	JOINT RHipJoint
	{
		OFFSET 0.000000 0.000000 0.000000
		CHANNELS 3 Zrotation Yrotation Xrotation
		JOINT RightUpLeg
		{
			OFFSET -1.305520 -1.794630 0.839290
			CHANNELS 3 Zrotation Yrotation Xrotation
			JOINT RightLeg
			{
				OFFSET -2.542530 -6.985550 0.000000
				CHANNELS 3 Zrotation Yrotation Xrotation
				JOINT RightFoot
				{
					OFFSET -2.568260 -7.056230 0.000000
					CHANNELS 3 Zrotation Yrotation Xrotation
					JOINT RightToeBase
					{
						OFFSET -0.164730 -0.452590 2.363150
						CHANNELS 3 Zrotation Yrotation Xrotation
						End Site
						{
							OFFSET 0.000000 0.000000 0.000000
						}
					}
				}
			}
		}
	}
}
MOTION
Frames: 24
Frame Time: 0.008333
7.601457 22.601613 1.052335 22.096062 -65.918671 8.389301 -7.114806 0.397367 1.468838 -27.264273 -3.230945 -109.300251 3.420840 9.426804 91.462038 3.387558 16.312635 -7.653312 0.863300 -0.000000 -40.444000 13.704999 -0.440307 -5.218611 -26.469862 -19.819377 -25.407982 -13.163231 -10.445941 127.534086 -1.627495 -7.778876 -20.166231 1.280400 0.000000 -67.313800
7.509516 22.618130 1.065530 21.568445 -65.965972 9.923085 -6.958782 0.586971 1.692068 -27.975148 -5.322540 -114.737634 3.938934 9.983949 93.794767 3.533534 16.846204 -8.130726 0.789300 -0.000000 -39.655600 13.516614 -0.552030 -5.076273 -28.812898 -18.731101 -24.830734 -14.751908 -10.873985 130.844254 -1.532763 -6.877222 -21.700895 1.295500 -0.000000 -66.913400
7.411795 22.626500 1.084347 20.820438 -66.088588 11.602990 -6.853848 0.840135 1.885544 -28.430067 -7.390858 -119.947210 4.451522 10.531478 95.889511 3.634305 17.219779 -8.335644 0.778600 -0.000000 -39.394300 13.275449 -0.731336 -4.894766 -30.958954 -17.502479 -24.131710 -16.156051 -11.226663 133.443673 -1.391373 -5.747605 -22.979553 1.211500 -0.000000 -66.418100
7.308683 22.628457 1.106855 19.855363 -66.273981 13.381905 -6.802000 1.143713 2.043476 -28.632596 -9.351643 -124.848393 4.948312 11.056311 97.731644 3.687200 17.445120 -8.214376 0.855201 -0.000000 -39.780400 12.999376 -0.947652 -4.718059 -32.797332 -16.299469 -23.414815 -17.293138 -11.508876 135.352314 -1.222009 -4.526461 -24.058433 1.058600 0.000000 -65.819900
7.201146 22.625317 1.131229 18.686473 -66.504957 15.208358 -6.799665 1.470730 2.160403 -28.609859 -11.115486 -129.364463 5.419184 11.545074 99.323447 3.694237 17.539801 -7.772351 1.020200 0.000000 -40.723100 12.708256 -1.158107 -4.589111 -34.240330 -15.313198 -22.775718 -18.102023 -11.727128 136.609339 -1.052849 -3.373080 -25.003636 0.878200 -0.000000 -65.144100
7.090118 22.618020 1.155225 17.358362 -66.760116 17.014314 -6.836270 1.789252 2.236642 -28.407497 -12.609606 -133.427163 5.853870 11.984676 100.671213 3.661379 17.528191 -7.040161 1.263301 0.000000 -42.107300 12.423163 -1.314996 -4.538365 -35.243289 -14.723525 -22.293215 -18.551466 -11.887120 137.265806 -0.912710 -2.434563 -25.856018 0.713000 0.000000 -64.472501
6.976697 22.607501 1.176892 15.920494 -67.023003 18.741771 -6.898496 2.066050 2.277152 -28.075979 -13.775659 -136.984359 6.243742 12.363991 101.789198 3.596945 17.432867 -6.078274 1.562300 -0.000001 -43.764600 12.161191 -1.378658 -4.581513 -35.798365 -14.655381 -22.022752 -18.638034 -11.992021 137.375671 -0.822078 -1.812087 -26.626341 0.598100 -0.000000 -63.900099
6.861765 22.594459 1.194325 14.439029 -67.277517 20.330865 -6.971148 2.272786 2.288972 -27.674868 -14.576417 -139.988816 6.581107 12.673789 102.694888 3.509810 17.269991 -4.971032 1.886700 -0.000000 -45.490600 11.933558 -1.325337 -4.720149 -35.938597 -15.160286 -21.986608 -18.384721 -12.045254 136.991807 -0.788040 -1.541248 -27.296926 0.555001 0.000000 -63.508900
6.746279 22.579474 1.206366 12.967883 -67.512572 21.742204 -7.041874 2.388277 2.280905 -27.254613 -14.996978 -142.409714 6.860780 12.907363 103.408294 3.408400 17.049856 -3.811006 2.204500 0.000000 -47.087600 11.743113 -1.149467 -4.945298 -35.716210 -16.213272 -22.180793 -17.827697 -12.049085 136.154170 -0.806210 -1.604345 -27.825626 0.590300 0.000000 -63.352200
6.630890 22.562714 1.212044 11.575128 -67.713191 22.932679 -7.099772 2.403080 2.260801 -26.864971 -15.053329 -144.218900 7.078324 13.060569 103.944328 3.300407 16.782669 -2.683027 2.489301 0.000000 -48.410300 11.587555 -0.862230 -5.238995 -35.203547 -17.733142 -22.574094 -17.017629 -12.008143 134.897568 -0.864991 -1.946608 -28.161971 0.696500 0.000000 -63.454900
6.516149 22.544583 1.211174 10.306196 -67.871837 23.884577 -7.139644 2.316830 2.235382 -26.535848 -14.775729 -145.405741 7.231300 13.132626 104.313416 3.192767 16.482216 -1.650857 2.724600 -0.000000 -49.374100 11.460048 -0.486873 -5.578201 -34.465802 -19.598217 -23.128960 -16.010906 -11.926314 133.253990 -0.952252 -2.506620 -28.264391 0.858700 0.000000 -63.802400
6.402185 22.524770 1.203804 9.212058 -67.981325 24.582205 -7.158755 2.140580 2.209415 -26.286490 -14.217037 -145.971884 7.317665 13.126733 104.516159 3.091942 16.171005 -0.745550 2.907801 -0.000000 -49.978800 11.354883 -0.053807 -5.936119 -33.566180 -21.675554 -23.805729 -14.868711 -11.809627 131.259202 -1.058564 -3.229161 -28.118194 1.059600 -0.000000 -64.339201
6.288847 22.503207 1.190247 8.338195 -68.037583 25.016871 -7.157265 1.893604 2.186351 -26.123551 -13.442906 -145.929046 7.335488 13.049012 104.543114 3.004292 15.880871 0.033216 3.049200 0.000000 -50.264500 11.268964 0.406305 -6.285503 -32.556206 -23.841318 -24.576427 -13.649033 -11.664775 128.953186 -1.179534 -4.078850 -27.741879 1.285300 0.000000 -64.967700
6.175873 22.479220 1.171070 7.678814 -68.060836 25.220592 -7.139458 1.593351 2.166353 -26.035575 -12.487617 -145.323753 7.286499 12.908125 104.386887 2.933821 15.643956 0.733536 3.171900 -0.000000 -50.388899 11.200722 0.862574 -6.603870 -31.451212 -25.969592 -25.437909 -12.403069 -11.496576 126.390534 -1.313186 -5.027061 -27.199725 1.525700 0.000000 -65.547200
6.062432 22.452018 1.146409 7.272553 -68.057322 25.185770 -7.105459 1.264884 2.148610 -26.023343 -11.416532 -144.188572 7.169864 12.713175 104.027270 2.884082 15.492887 1.413404 3.301600 -0.000000 -50.462600 11.154736 1.292477 -6.869632 -30.277819 -27.976573 -26.392961 -11.171744 -11.313870 123.621831 -1.458115 -6.048898 -26.571585 1.774100 0.000000 -65.934500
5.948062 22.420889 1.117195 7.123907 -68.042568 24.934340 -7.059174 0.932189 2.133981 -26.073214 -10.291091 -142.581941 6.987553 12.474174 103.446058 2.857690 15.456974 2.145550 3.467300 0.000000 -50.595000 11.133909 1.680276 -7.064231 -29.034940 -29.792758 -27.474900 -9.983985 -11.122232 120.699945 -1.612578 -7.121210 -25.927166 2.026200 0.000000 -66.043900
5.831967 22.384399 1.084209 7.209918 -68.047845 24.505504 -7.005177 0.610930 2.119247 -26.174425 -9.135069 -140.575328 6.744096 12.200392 102.633975 2.852320 15.539573 3.003508 3.692300 0.000000 -50.887800 11.140091 2.012221 -7.174529 -27.702837 -31.347499 -28.721499 -8.856405 -10.924394 117.669967 -1.770971 -8.199593 -25.333733 2.275300 -0.000000 -65.813400
5.713862 22.341898 1.048913 7.475461 -68.111786 23.963821 -6.951151 0.312145 2.101890 -26.310906 -7.957951 -138.254786 6.446275 11.901080 101.589922 2.862897 15.723054 4.036559 3.989200 0.000000 -51.325300 11.171074 2.278051 -7.188885 -26.242964 -32.571879 -30.180720 -7.795428 -10.717482 114.561898 -1.926172 -9.233684 -24.819920 2.512200 -0.000000 -65.273900
5.593788 22.292681 1.011422 7.931815 -68.246459 23.291740 -6.897088 0.042912 2.070211 -26.494209 -6.775380 -135.648469 6.095124 11.579355 100.298217 2.881874 15.973385 5.277672 4.362401 -0.000000 -52.088600 11.225960 2.476651 -7.104318 -24.675313 -33.434090 -31.832359 -6.803202 -10.501320 111.384513 -2.066088 -10.143144 -24.391727 2.718599 0.000000 -64.493499
5.471998 22.235816 0.974016 8.468216 -68.500741 22.600082 -6.856349 -0.196040 2.022025 -26.695359 -5.559091 -132.859720 5.701614 11.245344 98.777233 2.898367 16.224975 6.696718 4.789300 0.000000 -52.914800 11.294274 2.602006 -6.914171 -22.950256 -33.864999 -33.699921 -5.876955 -10.261101 108.140724 -2.183021 -10.878159 -24.000810 2.874600 -0.000000 -63.674400
5.349244 22.170674 0.937749 9.028584 -68.891871 21.928676 -6.835721 -0.407438 1.948268 -26.898343 -4.290023 -129.929213 5.270605 10.902686 97.025912 2.902111 16.412507 8.257714 5.239500 0.000000 -53.899100 11.365887 2.657633 -6.623302 -21.085052 -33.838427 -35.721580 -5.012532 -9.984704 104.809240 -2.267070 -11.377851 -23.586029 2.953600 0.000000 -63.020900
5.226458 22.097034 0.903376 9.562756 -69.427550 21.306199 -6.840276 -0.595071 1.839204 -27.091481 -2.948680 -126.880074 4.807773 10.554836 95.048908 2.882372 16.459013 9.871987 5.658099 0.000000 -54.866800 11.430500 2.651957 -6.241517 -19.123647 -33.352249 -37.801987 -4.207475 -9.661214 101.362513 -2.310119 -11.596768 -23.070809 2.929900 0.000000 -62.751300
5.104610 22.014381 0.871733 10.006819 -70.105514 20.773062 -6.875723 -0.763673 1.688463 -27.247519 -1.519208 -123.726375 4.319106 10.203889 92.847716 2.831295 16.301129 11.455310 5.988700 -0.000000 -55.804900 11.476430 2.595854 -5.787007 -17.118389 -32.429192 -39.822652 -3.459085 -9.282323 97.765798 -2.306887 -11.510897 -22.381236 2.787300 0.000000 -63.039301
4.984480 21.922222 0.843348 10.306298 -70.910571 20.362059 -6.944713 -0.915618 1.493840 -27.342531 -0.002492 -120.474169 3.810599 9.851224 90.422613 2.743532 15.890421 12.927172 6.179000 -0.000000 -56.678100 11.494234 2.501067 -5.282691 -15.126036 -31.124547 -41.668002 -2.766812 -8.847963 93.991290 -2.255084 -11.116682 -21.460657 2.525599 0.000000 -63.961800
